HIERARCHY
ROOT Hips
{
    OFFSET 0.000000 0.000000 0.000000
    CHANNELS 6 Xposition Yposition Zposition Zrotation Xrotation Yrotation
    JOINT Spine
    {
        OFFSET -0.000000 7.315584 0.000000
        CHANNELS 3 Zrotation Xrotation Yrotation
        JOINT Spine1
        {
            OFFSET -0.000000 21.742830 0.000000
            CHANNELS 3 Zrotation Xrotation Yrotation
            JOINT Neck
            {
                OFFSET -0.000000 21.653538 1.968503
                CHANNELS 3 Zrotation Xrotation Yrotation
                JOINT Head
                {
                    OFFSET -0.000000 12.490022 -1.784289
                    CHANNELS 3 Zrotation Xrotation Yrotation
                    End Site
                    {
                        OFFSET -0.000000 22.303610 0.000000
                    }
                }
            }
            JOINT LeftShoulder
            {
                OFFSET 3.565460 21.440739 -0.045508
                CHANNELS 3 Zrotation Xrotation Yrotation
                JOINT LeftArm
                {
                    OFFSET 5.865323 0.000000 0.000000
                    CHANNELS 3 Zrotation Xrotation Yrotation
                    JOINT LeftForeArm
                    {
                        OFFSET 30.083149 0.000000 0.000000
                        CHANNELS 3 Zrotation Xrotation Yrotation
                        JOINT LeftHand
                        {
                            OFFSET 21.313328 0.000000 0.000000
                            CHANNELS 3 Zrotation Xrotation Yrotation
                            End Site
                            {
                                OFFSET 13.382167 0.000000 0.000000
                            }
                        }
                    }
                }
            }
            JOINT RightShoulder
            {
                OFFSET -3.556053 21.440739 -0.045508
                CHANNELS 3 Zrotation Xrotation Yrotation
                JOINT RightArm
                {
                    OFFSET -5.865323 0.000000 0.000000
                    CHANNELS 3 Zrotation Xrotation Yrotation
                    JOINT RightForeArm
                    {
                        OFFSET -30.083149 0.000000 0.000000
                        CHANNELS 3 Zrotation Xrotation Yrotation
                        JOINT RightHand
                        {
                            OFFSET -21.313328 0.000000 0.000000
                            CHANNELS 3 Zrotation Xrotation Yrotation
                            End Site
                            {
                                OFFSET -13.382167 0.000000 0.000000
                            }
                        }
                    }
                }
            }
        }
    }
    JOINT LeftUpLeg
    {
        OFFSET 8.921444 0.000000 0.000000
        CHANNELS 3 Zrotation Xrotation Yrotation
        JOINT LeftLeg
        {
            OFFSET -0.000000 -39.632927 0.000000
            CHANNELS 3 Zrotation Xrotation Yrotation
            JOINT LeftFoot
            {
                OFFSET -0.000000 -38.058365 0.000000
                CHANNELS 3 Zrotation Xrotation Yrotation
                JOINT LeftToeBase
                {
                    OFFSET -0.000000 -5.798938 13.382167
                    CHANNELS 3 Zrotation Xrotation Yrotation
                    End Site
                    {
                        OFFSET -0.000000 0.000000 3.568577
                    }
                }
            }
        }
    }
    JOINT RightUpLeg
    {
        OFFSET -8.921444 0.000000 0.000000
        CHANNELS 3 Zrotation Xrotation Yrotation
        JOINT RightLeg
        {
            OFFSET -0.000000 -39.632927 0.000000
            CHANNELS 3 Zrotation Xrotation Yrotation
            JOINT RightFoot
            {
                OFFSET -0.000000 -38.058365 0.000000
                CHANNELS 3 Zrotation Xrotation Yrotation
                JOINT RightToeBase
                {
                    OFFSET -0.000000 -5.798938 13.382167
                    CHANNELS 3 Zrotation Xrotation Yrotation
                    End Site
                    {
                        OFFSET -0.000000 0.000000 3.568577
                    }
                }
            }
        }
    }
}
MOTION
Frames:    14
Frame Time:    0.004000
-20.713717    74.181480    -106.477264    3.162525    -8.286168    99.885048    7.269731    6.783657    -1.572645    3.864743    6.433986    -1.358110    6.690400    25.014296    -32.981430    15.563986    -21.215866    -28.976538    6.329741    5.016951    -7.140941    -37.440876    14.103480    8.613877    8.979243    -1.698137    0.133598    1.535094    -1.554472    11.471070    -12.205565    3.341984    -0.317818    21.824209    19.010002    -4.156885    1.705172    19.808395    -5.681346    12.644461    18.804356    -10.337935    19.857000    -12.995784    7.178460    7.638129    42.964508    -10.960997    -14.309471    -27.454439    -1.486649    0.000000    0.000000    0.000000    -33.304089    -14.416203    -1.593400    5.823898    28.015194    -1.743135    10.832773    24.011065    -8.577537    0.000000    0.000000    0.000000    
-20.612175    74.077293    -106.124687    3.214218    -8.197543    99.977493    7.275935    6.676959    -1.553871    3.680044    6.490551    -1.337192    6.642168    25.125238    -33.047085    15.696552    -21.064562    -29.022644    6.373161    5.037956    -7.140337    -37.405640    13.953334    8.606891    8.994964    -1.664226    0.137379    1.305803    -1.543759    11.479640    -12.178656    3.288146    -0.173789    21.877888    18.946808    -4.435575    1.636664    19.786728    -5.623999    12.683139    18.760870    -10.473132    20.077728    -12.964877    7.246286    7.710157    43.006054    -11.150645    -14.399307    -27.355688    -1.629991    0.000000    0.000000    0.000000    -33.375721    -13.974016    -0.758001    5.463275    27.278599    -1.502126    11.330723    24.452576    -8.759782    0.000000    0.000000    0.000000    
-20.534525    73.977005    -105.786278    3.242060    -8.081317    100.094749    7.312386    6.611565    -1.565526    3.382481    6.543626    -1.335540    6.846458    25.141207    -33.089775    15.556105    -21.115273    -29.084673    6.477690    5.089763    -6.996338    -37.474377    14.173231    8.527495    9.208115    -1.739974    0.130790    1.298468    -1.620794    11.412480    -11.945562    3.046873    -0.371884    21.551155    18.882038    -4.408651    1.735740    19.936842    -5.485610    12.665566    18.911818    -10.513462    20.223642    -12.982872    7.200724    7.758414    43.040382    -11.213374    -14.972685    -27.247904    -1.858364    0.000000    0.000000    0.000000    -33.500969    -13.580986    0.039877    5.253685    26.662344    -1.289112    11.204163    24.912983    -8.584714    0.000000    0.000000    0.000000    
-20.440037    73.878815    -105.430412    3.272459    -7.987868    100.195206    7.263150    6.450158    -1.513594    3.325549    6.639511    -1.296376    6.764576    25.294672    -33.208241    15.650153    -21.013027    -29.191774    6.489931    5.153215    -7.177650    -37.465057    13.828443    8.547987    9.236921    -1.678288    0.127230    1.317907    -1.558159    11.302436    -12.056627    3.248598    -0.469187    21.533289    18.662825    -4.347521    1.753817    19.962227    -5.484847    12.671617    18.934610    -10.542057    20.421661    -12.976231    7.222662    7.828079    43.046265    -11.311688    -14.579105    -27.437706    -1.779873    0.000000    0.000000    0.000000    -33.547806    -13.185809    0.970347    5.010175    26.060152    -1.585478    10.584445    25.442579    -8.120914    0.000000    0.000000    0.000000    
-20.337353    73.777161    -105.073479    3.316163    -7.872817    100.295380    7.310930    6.421216    -1.503519    3.094128    6.527199    -1.268907    6.580152    25.493380    -33.278133    15.836981    -20.795492    -29.241947    6.442098    5.175613    -7.239736    -37.323635    13.388416    8.606844    9.278633    -1.500863    0.103974    1.209203    -1.390495    11.225675    -12.148201    3.370273    -0.513300    21.610249    18.491911    -4.334579    1.703569    20.056793    -5.530151    12.709535    19.017256    -10.613047    20.602222    -12.932787    7.241179    7.893266    43.028458    -11.409074    -14.850716    -27.427011    -1.920554    0.000000    0.000000    0.000000    -33.617199    -12.781141    1.902034    4.830932    25.562887    -1.433344    10.551641    25.620033    -8.380634    0.000000    0.000000    0.000000    
-20.251072    73.682304    -104.712631    3.285602    -7.749940    100.360626    7.201784    6.202638    -1.472352    2.998909    6.748463    -1.258099    6.684316    25.461428    -33.317528    15.767323    -20.841125    -29.290972    6.498809    5.125317    -7.066494    -37.615654    13.807194    8.686045    9.846080    -1.780536    -0.217029    1.028775    -1.658849    11.439152    -12.134727    3.245597    -0.594489    21.545231    18.535736    -4.375124    1.703978    20.082140    -5.443672    12.655075    19.043097    -10.644250    20.782822    -12.949993    7.229699    7.852307    43.009148    -11.448146    -15.093845    -27.390535    -1.990961    0.000000    0.000000    0.000000    -33.691692    -12.483397    2.885089    4.687555    25.150743    -1.346839    11.167607    25.682001    -9.026063    0.000000    0.000000    0.000000    
-20.167339    73.581329    -104.363777    3.303057    -7.631142    100.435448    7.188091    6.132817    -1.450930    2.835944    6.723243    -1.231616    6.643863    25.563187    -33.410828    15.773680    -20.735992    -29.398891    6.510886    5.101660    -6.946599    -37.687382    13.653604    8.682368    10.135874    -1.730736    -0.433340    0.876212    -1.604098    11.502959    -12.132805    3.210635    -0.662738    21.506414    18.652193    -4.390483    1.673301    20.109816    -5.430173    12.722023    19.064013    -10.638703    20.939875    -12.923001    7.197184    7.874873    42.977226    -11.494614    -15.381454    -27.383774    -2.088572    0.000000    0.000000    0.000000    -33.752430    -12.173879    3.816209    4.553024    24.831774    -1.265170    11.252508    25.779829    -9.338674    0.000000    0.000000    0.000000    
-20.061031    73.474648    -103.978714    3.322767    -7.503707    100.506706    7.208814    6.093634    -1.459958    2.610972    6.592360    -1.225746    6.238483    25.733320    -33.325726    16.106878    -20.286413    -29.297703    6.274380    5.027832    -6.585869    -37.385868    13.969179    8.473020    10.030242    -1.797656    -0.255495    1.318753    -1.642121    11.531905    -12.125912    3.179792    -0.535674    21.527554    18.692404    -4.547417    1.732204    20.194540    -5.491986    12.356548    19.187325    -10.619415    21.133396    -12.880047    7.165971    7.854172    42.950211    -11.528259    -15.813103    -27.303415    -2.223920    0.000000    0.000000    0.000000    -33.790215    -11.854641    4.863155    4.462239    24.552780    -1.187162    11.376511    25.948105    -9.875176    0.000000    0.000000    0.000000    
-19.946436    73.378098    -103.611206    3.374804    -7.386477    100.616890    7.243463    5.999232    -1.456491    2.351289    6.607168    -1.211825    6.193310    25.891138    -33.405994    16.236256    -20.191513    -29.351717    6.158499    5.227340    -6.299525    -37.118408    13.929951    8.128566    10.195872    -1.802955    -0.232387    1.275679    -1.654223    11.462018    -12.118085    3.261857    -0.648138    21.503496    18.672462    -4.460151    1.728970    20.285130    -5.491507    12.476444    19.262810    -10.666280    21.326473    -12.786474    7.045611    7.769570    42.874718    -11.498651    -16.000378    -27.265295    -2.277543    0.000000    0.000000    0.000000    -33.814396    -11.427667    6.237644    4.553166    24.209089    -1.369287    11.194617    25.954416    -10.209722    0.000000    0.000000    0.000000    
-19.841249    73.274681    -103.215614    3.381931    -7.250965    100.678528    7.241860    5.867114    -1.448160    2.048765    6.706645    -1.196253    6.371927    25.879948    -33.469059    16.135086    -20.204456    -29.430321    6.538719    4.938152    -6.367539    -37.494919    13.337961    8.391013    10.387387    -1.546861    -0.398053    1.388292    -1.371456    11.456039    -12.042580    3.171625    -0.676508    21.491674    18.747852    -4.499183    1.738751    20.354664    -5.467425    12.471925    19.332163    -10.677179    21.519156    -12.722954    6.973558    7.684014    42.787643    -11.398992    -16.333103    -27.275803    -2.363695    0.000000    0.000000    0.000000    -33.781845    -11.151467    7.034714    4.306274    24.068151    -1.352967    11.265965    26.000650    -10.132895    0.000000    0.000000    0.000000    
-19.730558    73.175400    -102.827026    3.407932    -7.112505    100.737610    7.217066    5.762906    -1.426977    1.823494    6.728497    -1.170093    6.268217    26.064285    -33.519882    16.361570    -20.112459    -29.427988    6.422020    5.126388    -6.133584    -37.393005    13.695467    8.192784    10.634385    -1.756340    -0.447051    1.509273    -1.561988    11.563999    -12.015887    3.250762    -0.759163    21.449263    18.824461    -4.413198    1.848593    20.355633    -5.519786    11.989336    19.384289    -10.653623    21.719322    -12.625837    6.906274    7.581963    42.703831    -11.438986    -16.502674    -27.271566    -2.322022    0.000000    0.000000    0.000000    -33.780148    -10.888048    7.838194    4.175179    24.035179    -0.782937    11.633185    26.027910    -10.888642    0.000000    0.000000    0.000000    
-19.624475    73.081558    -102.434944    3.427133    -6.962764    100.800591    7.155033    5.669177    -1.415245    1.700452    6.716950    -1.159930    6.105028    26.343267    -33.538589    16.577641    -20.204136    -29.369263    6.249755    5.013630    -6.076687    -37.335938    13.674509    8.297917    10.890560    -1.688111    -0.450303    1.294080    -1.515499    11.450947    -12.118313    3.236212    -0.619280    21.546600    18.906046    -4.611781    1.894804    20.343744    -5.501539    11.650321    19.407446    -10.621082    21.875811    -12.535444    6.777921    7.498401    42.594913    -11.397510    -16.788761    -27.200678    -2.338400    0.000000    0.000000    0.000000    -33.781139    -10.624802    8.594542    4.055182    23.992746    -0.480141    12.182974    26.268200    -11.134658    0.000000    0.000000    0.000000    
-19.519526    72.985397    -102.044380    3.457018    -6.810343    100.884544    7.122338    5.580567    -1.403787    1.510454    6.738384    -1.144794    6.028609    26.357595    -33.589199    16.534899    -20.009562    -29.470125    6.207722    5.243195    -6.180836    -37.343384    13.462234    8.327982    11.053272    -1.804167    -0.547556    1.515031    -1.598189    11.538037    -12.199381    3.240966    -0.644317    21.622351    18.985035    -4.623057    1.894814    20.366623    -5.550609    11.732673    19.428097    -10.578279    22.039101    -12.436313    6.615791    7.363295    42.471855    -11.256927    -17.053986    -27.129181    -2.406307    0.000000    0.000000    0.000000    -33.778202    -10.359533    9.218900    3.978683    24.062897    0.460693    11.703479    26.101299    -11.560401    0.000000    0.000000    0.000000    
-19.411926    72.897110    -101.647865    3.484215    -6.628011    100.996223    7.112000    5.480674    -1.422879    1.201277    6.822449    -1.153254    6.149002    26.427261    -33.643780    16.522545    -20.123852    -29.498753    6.211223    5.049967    -6.032398    -37.357689    13.468950    8.385811    11.313243    -1.701867    -0.566248    1.293903    -1.516448    11.422150    -12.113686    3.235955    -0.695193    21.574125    19.020845    -4.605542    1.934151    20.352112    -5.538073    11.563364    19.433592    -10.541340    22.148115    -12.333998    6.409271    7.264361    42.315247    -11.164058    -17.339617    -27.016142    -2.424640    0.000000    0.000000    0.000000    -33.802288    -10.060177    9.836803    3.937614    24.054996    0.777616    12.527084    26.437805    -12.262198    0.000000    0.000000    0.000000    
